<svg xmlns="http://www.w3.org/2000/svg" width="512" height="512" viewBox="0 0 512 512"><defs><radialGradient id="bbf" cx="0.5" cy="0.5" r="0.5"><stop offset="0" stop-color="#6a56c4" stop-opacity="0.1"></stop><stop offset="0.6" stop-color="#41307f" stop-opacity="0.15"></stop><stop offset="0.86" stop-color="#8f76e0" stop-opacity="0.28"></stop><stop offset="1" stop-color="#241a4e" stop-opacity="0.5"></stop></radialGradient><linearGradient id="bbr" x1="0" y1="0" x2="1" y2="1"><stop offset="0" stop-color="#ffeaa6"></stop><stop offset="0.3" stop-color="#e9bd54"></stop><stop offset="0.65" stop-color="#a8752a"></stop><stop offset="1" stop-color="#f2d284"></stop></linearGradient><linearGradient id="bbh" x1="0" y1="1" x2="1" y2="0"><stop offset="0" stop-color="#ffffff" stop-opacity="0"></stop><stop offset="0.5" stop-color="#ffffff" stop-opacity="0.85"></stop><stop offset="1" stop-color="#ffffff" stop-opacity="0"></stop></linearGradient><linearGradient id="cm" x1="0" y1="0" x2="0" y2="1"><stop offset="0" stop-color="#ffe3c2"></stop><stop offset="0.38" stop-color="#eda45f"></stop><stop offset="0.78" stop-color="#b26429"></stop><stop offset="1" stop-color="#6e3a12"></stop></linearGradient><radialGradient id="co" cx="0.5" cy="0.5" r="0.5" fx="0.35" fy="0.3"><stop offset="0" stop-color="#ffe3c2"></stop><stop offset="0.45" stop-color="#eda45f"></stop><stop offset="0.8" stop-color="#b26429"></stop><stop offset="1" stop-color="#6e3a12"></stop></radialGradient><radialGradient id="cg" cx="0.5" cy="0.5" r="0.5" fx="0.35" fy="0.3"><stop offset="0" stop-color="#e4d5ff"></stop><stop offset="0.4" stop-color="#9a6cf5"></stop><stop offset="0.8" stop-color="#5b34a8"></stop><stop offset="1" stop-color="#33195e"></stop></radialGradient><radialGradient id="cp" cx="0.5" cy="0.5" r="0.5" fx="0.4" fy="0.25"><stop offset="0" stop-color="#a078ec"></stop><stop offset="0.6" stop-color="#6c43c0"></stop><stop offset="1" stop-color="#43277f"></stop></radialGradient><radialGradient id="cs" cx="0.5" cy="0.5" r="0.5"><stop offset="0" stop-color="#000000" stop-opacity="0.38"></stop><stop offset="0.65" stop-color="#000000" stop-opacity="0.2"></stop><stop offset="1" stop-color="#000000" stop-opacity="0"></stop></radialGradient></defs><circle cx="256" cy="256" r="228" fill="url(#bbf)"></circle><circle cx="256" cy="256" r="228" fill="none" stroke="url(#bbr)" stroke-width="7"></circle><circle cx="256" cy="256" r="219" fill="none" stroke="#ffe9b0" stroke-width="2.5" opacity="0.35"></circle><path d="M78,173 A196,196 0 0 1 205,67" stroke="url(#bbh)" stroke-width="22" stroke-linecap="round" fill="none"></path><path d="M434,339 A196,196 0 0 1 354,426" stroke="url(#bbh)" stroke-width="12" stroke-linecap="round" fill="none" opacity="0.8"></path><path d="M150 343 Q151.44 350.56 159 352 Q151.44 353.44 150 361 Q148.56 353.44 141 352 Q148.56 350.56 150 343 Z" fill="#fff" opacity="0.85"></path><path d="M376 103 Q378.08 113.92 389 116 Q378.08 118.08 376 129 Q373.92 118.08 363 116 Q373.92 113.92 376 103 Z" fill="#fff" opacity="0.9"></path><circle cx="404" cy="300" r="2.5" fill="#fff" opacity="0.7"></circle><g transform="translate(102.4,96.4) scale(0.6)"><rect x="136" y="398" width="240" height="46" rx="23" fill="url(#cm)"></rect><rect x="150" y="403" width="212" height="9" rx="4.5" fill="#fff" opacity="0.35"></rect><rect x="144" y="428" width="224" height="11" rx="5.5" fill="#6e3a12" opacity="0.4"></rect><path d="M92,376 C92,336 150,318 256,318 C362,318 420,336 420,376 C420,402 362,414 256,414 C150,414 92,402 92,376 Z" fill="url(#cp)"></path><path d="M168,326 Q196,366 186,406" stroke="#2e1a5e" stroke-width="5" fill="none" opacity="0.3" stroke-linecap="round"></path><path d="M344,326 Q316,366 326,406" stroke="#2e1a5e" stroke-width="5" fill="none" opacity="0.3" stroke-linecap="round"></path><ellipse cx="198" cy="345" rx="82" ry="20" fill="#fff" opacity="0.14" transform="rotate(-7 198 345)"></ellipse><path d="M136,286 C132,238 138,200 152,166 C170,210 190,248 208,280 Q170,288 136,286 Z" fill="url(#cm)"></path><path d="M376,286 C380,238 374,200 360,166 C342,210 322,248 304,280 Q342,288 376,286 Z" fill="url(#cm)"></path><path d="M212,278 C232,206 248,158 256,120 C264,158 280,206 300,278 Q256,290 212,278 Z" fill="url(#cm)"></path><path d="M253,134 C245,168 232,214 219,264" stroke="#fff" stroke-width="6" stroke-linecap="round" fill="none" opacity="0.35"></path><path d="M158,272 Q256,292 354,272 L354,336 Q256,356 158,336 Z" fill="url(#cm)"></path><path d="M158,336 Q256,356 354,336" stroke="#6e3a12" stroke-width="6" fill="none" opacity="0.5"></path><path d="M158,272 Q256,292 354,272" stroke="#fff" stroke-width="5" fill="none" opacity="0.4"></path><path d="M256,268 L296,302 L256,336 L216,302 Z" fill="url(#cg)" stroke="#b26429" stroke-width="5" stroke-linejoin="round"></path><path d="M256,268 L256,336 M216,302 L296,302" stroke="#fff" stroke-width="3" opacity="0.35"></path><circle cx="245" cy="289" r="6.5" fill="#fff" opacity="0.7"></circle><circle cx="150" cy="150" r="15" fill="url(#co)"></circle><circle cx="145.2" cy="145.2" r="5" fill="#fff" opacity="0.85"></circle><circle cx="362" cy="150" r="15" fill="url(#co)"></circle><circle cx="357.2" cy="145.2" r="5" fill="#fff" opacity="0.85"></circle><circle cx="256" cy="106" r="19" fill="url(#co)"></circle><circle cx="249.92" cy="99.92" r="6" fill="#fff" opacity="0.85"></circle></g></svg>