<svg xmlns="http://www.w3.org/2000/svg" width="512" height="512" viewBox="0 0 512 512"><defs><radialGradient id="bbf" cx="0.5" cy="0.5" r="0.5"><stop offset="0" stop-color="#6a56c4" stop-opacity="0.1"></stop><stop offset="0.6" stop-color="#41307f" stop-opacity="0.15"></stop><stop offset="0.86" stop-color="#8f76e0" stop-opacity="0.28"></stop><stop offset="1" stop-color="#241a4e" stop-opacity="0.5"></stop></radialGradient><linearGradient id="bbr" x1="0" y1="0" x2="1" y2="1"><stop offset="0" stop-color="#ffeaa6"></stop><stop offset="0.3" stop-color="#e9bd54"></stop><stop offset="0.65" stop-color="#a8752a"></stop><stop offset="1" stop-color="#f2d284"></stop></linearGradient><linearGradient id="bbh" x1="0" y1="1" x2="1" y2="0"><stop offset="0" stop-color="#ffffff" stop-opacity="0"></stop><stop offset="0.5" stop-color="#ffffff" stop-opacity="0.85"></stop><stop offset="1" stop-color="#ffffff" stop-opacity="0"></stop></linearGradient></defs><circle cx="256" cy="256" r="228" fill="url(#bbf)"></circle><circle cx="256" cy="256" r="228" fill="none" stroke="url(#bbr)" stroke-width="7"></circle><circle cx="256" cy="256" r="219" fill="none" stroke="#ffe9b0" stroke-width="2.5" opacity="0.35"></circle><path d="M78,173 A196,196 0 0 1 205,67" stroke="url(#bbh)" stroke-width="22" stroke-linecap="round" fill="none"></path><path d="M434,339 A196,196 0 0 1 354,426" stroke="url(#bbh)" stroke-width="12" stroke-linecap="round" fill="none" opacity="0.8"></path><path d="M150 343 Q151.44 350.56 159 352 Q151.44 353.44 150 361 Q148.56 353.44 141 352 Q148.56 350.56 150 343 Z" fill="#fff" opacity="0.85"></path><path d="M376 103 Q378.08 113.92 389 116 Q378.08 118.08 376 129 Q373.92 118.08 363 116 Q373.92 113.92 376 103 Z" fill="#fff" opacity="0.9"></path><circle cx="404" cy="300" r="2.5" fill="#fff" opacity="0.7"></circle></svg>