<svg xmlns="http://www.w3.org/2000/svg" viewBox="0 0 128 128"><defs><filter id="ds" x="-25%" y="-25%" width="150%" height="150%"><feDropShadow dx="0" dy="3" stdDeviation="4" flood-color="#000814" flood-opacity="0.38"></feDropShadow></filter><radialGradient id="m" cx="0.5" cy="0.4" r="0.7"><stop offset="0" stop-color="#FFE9A8"></stop><stop offset="0.7" stop-color="#F5BE2A"></stop><stop offset="1" stop-color="#E09A12"></stop></radialGradient><linearGradient id="r" x1="0" y1="0" x2="0" y2="1"><stop offset="0" stop-color="#FFB238"></stop><stop offset="1" stop-color="#E07A12"></stop></linearGradient><linearGradient id="st" x1="0" y1="0" x2="0" y2="1"><stop offset="0" stop-color="#FFF3C4"></stop><stop offset="1" stop-color="#FFC93C"></stop></linearGradient></defs><g filter="url(#ds)"><path d="M52 78 L40 112 L55 104 L61 116 Z" fill="url(#r)" stroke="#9C5A08" stroke-width="3" stroke-linejoin="round"></path><path d="M76 78 L88 112 L73 104 L67 116 Z" fill="url(#r)" stroke="#9C5A08" stroke-width="3" stroke-linejoin="round"></path><circle cx="64" cy="56" r="35" fill="url(#m)" stroke="#9C6B10" stroke-width="3.5"></circle><circle cx="64" cy="56" r="27" fill="none" stroke="#C88A14" stroke-width="2.5"></circle><circle cx="95.0" cy="56.0" r="1.8" fill="#B97A10"></circle><circle cx="89.1" cy="74.2" r="1.8" fill="#B97A10"></circle><circle cx="73.6" cy="85.5" r="1.8" fill="#B97A10"></circle><circle cx="54.4" cy="85.5" r="1.8" fill="#B97A10"></circle><circle cx="38.9" cy="74.2" r="1.8" fill="#B97A10"></circle><circle cx="33.0" cy="56.0" r="1.8" fill="#B97A10"></circle><circle cx="38.9" cy="37.8" r="1.8" fill="#B97A10"></circle><circle cx="54.4" cy="26.5" r="1.8" fill="#B97A10"></circle><circle cx="73.6" cy="26.5" r="1.8" fill="#B97A10"></circle><circle cx="89.1" cy="37.8" r="1.8" fill="#B97A10"></circle><polygon points="64.0,40.0 67.9,50.6 79.2,51.1 70.4,58.1 73.4,68.9 64.0,62.7 54.6,68.9 57.6,58.1 48.8,51.1 60.1,50.6" fill="url(#st)" stroke="#A8720F" stroke-width="2.5" stroke-linejoin="round"></polygon><path d="M40 38 A30 30 0 0 1 74 26" stroke="#FFF6D8" stroke-width="4.5" fill="none" opacity=".5" stroke-linecap="round"></path></g></svg>