<svg xmlns="http://www.w3.org/2000/svg" viewBox="0 0 128 128"><defs><filter id="ds" x="-25%" y="-25%" width="150%" height="150%"><feDropShadow dx="0" dy="3" stdDeviation="4" flood-color="#000814" flood-opacity="0.38"></feDropShadow></filter><linearGradient id="g" x1="0" y1="0" x2="0" y2="1"><stop offset="0" stop-color="#B487FF"></stop><stop offset="1" stop-color="#6D28D9"></stop></linearGradient><linearGradient id="c" x1="0" y1="0" x2="0" y2="1"><stop offset="0" stop-color="#FFE9A0"></stop><stop offset="0.5" stop-color="#F7C948"></stop><stop offset="1" stop-color="#DE9612"></stop></linearGradient></defs><g filter="url(#ds)"><path d="M64 14 L102 28 V60 C102 86 87 103 64 112 C41 103 26 86 26 60 V28 Z" fill="url(#g)" stroke="#4C1D95" stroke-width="4" stroke-linejoin="round"></path><path d="M64 23 L93 34 V60 C93 80 81 95 64 103 C47 95 35 80 35 60 V34 Z" fill="none" stroke="#D8C6FF" stroke-width="2.5" opacity=".55"></path><path d="M46 68 L50 50 L59 59 L64 46 L69 59 L78 50 L82 68 Z" fill="url(#c)" stroke="#8A5507" stroke-width="2.5" stroke-linejoin="round"></path><rect x="46" y="68" width="36" height="7" rx="3.5" fill="url(#c)" stroke="#8A5507" stroke-width="2"></rect><circle cx="52" cy="84" r="2.2" fill="#E3D2FF"></circle><circle cx="64" cy="87" r="2.2" fill="#E3D2FF"></circle><circle cx="76" cy="84" r="2.2" fill="#E3D2FF"></circle><path d="M36 34 C44 28 54 24 64 23" stroke="#E8DCFF" stroke-width="4" fill="none" opacity=".6" stroke-linecap="round"></path></g></svg>